<svg width="193" height="25" viewBox="0 0 193 25" fill="none" xmlns="http://www.w3.org/2000/svg">
<path d="M35.35 7.46196H44.242V9.89196H38.05V12.826H43.72V15.256H38.05V20.062H35.35V7.46196Z" fill="#414141"/>
<path d="M46.6877 20.062H43.8977L49.0457 7.46196H51.9617L57.0917 20.062H54.3017L53.3837 17.704H47.6237L46.6877 20.062ZM50.2157 10.954L48.4697 15.472H52.5377L50.7737 10.954C50.6537 10.618 50.5637 10.288 50.5037 9.96396C50.4317 10.336 50.3357 10.666 50.2157 10.954Z" fill="#414141"/>
<path d="M57.2183 13.906C57.2183 12.802 57.4103 11.812 57.7943 10.936C58.1903 10.048 58.7063 9.33996 59.3423 8.81196C59.9903 8.28396 60.7103 7.88796 61.5023 7.62396C62.2943 7.34796 63.1223 7.20996 63.9863 7.20996C65.3063 7.20996 66.5063 7.47996 67.5863 8.01996V10.594C66.7343 9.93396 65.6843 9.60396 64.4363 9.60396C63.2123 9.60396 62.1623 9.96996 61.2863 10.702C60.4223 11.422 59.9903 12.49 59.9903 13.906C59.9903 14.578 60.1163 15.178 60.3683 15.706C60.6203 16.222 60.9563 16.636 61.3763 16.948C61.8083 17.26 62.2823 17.5 62.7983 17.668C63.3263 17.824 63.8723 17.902 64.4363 17.902C65.8283 17.902 66.9083 17.554 67.6763 16.858V19.504C66.5603 20.044 65.3423 20.314 64.0223 20.314C63.1583 20.314 62.3303 20.182 61.5383 19.918C60.7463 19.654 60.0203 19.27 59.3603 18.766C58.7123 18.262 58.1903 17.59 57.7943 16.75C57.4103 15.91 57.2183 14.962 57.2183 13.906Z" fill="#414141"/>
<path d="M68.5816 7.46196H79.0036V9.89196H75.1336V20.062H72.4516V9.89196H68.5816V7.46196Z" fill="#414141"/>
<path d="M79.9038 16.228C79.6278 15.448 79.4898 14.626 79.4898 13.762C79.4898 12.898 79.6278 12.076 79.9038 11.296C80.1918 10.516 80.6058 9.81996 81.1458 9.20796C81.6978 8.59596 82.4058 8.10996 83.2698 7.74996C84.1338 7.38996 85.1058 7.20996 86.1858 7.20996C87.2658 7.20996 88.2378 7.38996 89.1018 7.74996C89.9658 8.10996 90.6678 8.59596 91.2078 9.20796C91.7598 9.81996 92.1738 10.516 92.4498 11.296C92.7378 12.076 92.8818 12.898 92.8818 13.762C92.8818 14.626 92.7378 15.448 92.4498 16.228C92.1738 17.008 91.7598 17.704 91.2078 18.316C90.6678 18.928 89.9658 19.414 89.1018 19.774C88.2378 20.134 87.2658 20.314 86.1858 20.314C85.1058 20.314 84.1338 20.134 83.2698 19.774C82.4058 19.414 81.6978 18.928 81.1458 18.316C80.6058 17.704 80.1918 17.008 79.9038 16.228ZM89.0838 16.66C89.7678 15.892 90.1098 14.926 90.1098 13.762C90.1098 12.598 89.7678 11.632 89.0838 10.864C88.3998 10.096 87.4338 9.71196 86.1858 9.71196C84.9258 9.71196 83.9538 10.096 83.2698 10.864C82.5858 11.632 82.2438 12.598 82.2438 13.762C82.2438 14.926 82.5858 15.892 83.2698 16.66C83.9538 17.428 84.9258 17.812 86.1858 17.812C87.4338 17.812 88.3998 17.428 89.0838 16.66Z" fill="#414141"/>
<path d="M97.5871 20.062H94.8871V7.46196H100.071C100.731 7.46196 101.337 7.52796 101.889 7.65996C102.453 7.79196 102.981 8.00796 103.473 8.30796C103.977 8.60796 104.367 9.03396 104.643 9.58596C104.931 10.138 105.075 10.798 105.075 11.566C105.075 13.474 104.157 14.722 102.321 15.31L106.083 20.062H102.969L99.5671 15.652H97.5871V20.062ZM97.5871 9.83796V13.402H100.197C100.809 13.402 101.313 13.258 101.709 12.97C102.117 12.67 102.321 12.22 102.321 11.62C102.321 11.008 102.123 10.558 101.727 10.27C101.331 9.98196 100.821 9.83796 100.197 9.83796H97.5871Z" fill="#414141"/>
<path d="M111.028 10.792C111.028 9.62796 111.466 8.73996 112.342 8.12796C113.218 7.51596 114.316 7.20996 115.636 7.20996C117.22 7.20996 118.582 7.53396 119.722 8.18196V10.702C118.654 9.93396 117.358 9.56196 115.834 9.58596C114.466 9.60996 113.782 9.99996 113.782 10.756C113.782 11.092 113.95 11.386 114.286 11.638C114.634 11.89 115.06 12.094 115.564 12.25C116.08 12.394 116.632 12.586 117.22 12.826C117.82 13.054 118.372 13.306 118.876 13.582C119.392 13.846 119.818 14.242 120.154 14.77C120.502 15.298 120.676 15.91 120.676 16.606C120.676 17.29 120.544 17.878 120.28 18.37C120.028 18.862 119.668 19.246 119.2 19.522C118.732 19.798 118.216 19.996 117.652 20.116C117.088 20.248 116.458 20.314 115.762 20.314C114.01 20.314 112.456 19.936 111.1 19.18V16.606C112.444 17.494 113.932 17.938 115.564 17.938C117.136 17.938 117.922 17.536 117.922 16.732C117.922 16.372 117.748 16.06 117.4 15.796C117.064 15.52 116.638 15.304 116.122 15.148C115.618 14.98 115.066 14.782 114.466 14.554C113.878 14.314 113.326 14.062 112.81 13.798C112.306 13.522 111.88 13.126 111.532 12.61C111.196 12.094 111.028 11.488 111.028 10.792Z" fill="#414141"/>
<path d="M128.346 20.062H125.664V15.598L120.732 7.46196H123.774L126.996 13.114L130.218 7.46196H133.26L128.346 15.598V20.062Z" fill="#414141"/>
<path d="M133.581 10.792C133.581 9.62796 134.019 8.73996 134.895 8.12796C135.771 7.51596 136.869 7.20996 138.189 7.20996C139.773 7.20996 141.135 7.53396 142.275 8.18196V10.702C141.207 9.93396 139.911 9.56196 138.387 9.58596C137.019 9.60996 136.335 9.99996 136.335 10.756C136.335 11.092 136.503 11.386 136.839 11.638C137.187 11.89 137.613 12.094 138.117 12.25C138.633 12.394 139.185 12.586 139.773 12.826C140.373 13.054 140.925 13.306 141.429 13.582C141.945 13.846 142.371 14.242 142.707 14.77C143.055 15.298 143.229 15.91 143.229 16.606C143.229 17.29 143.097 17.878 142.833 18.37C142.581 18.862 142.221 19.246 141.753 19.522C141.285 19.798 140.769 19.996 140.205 20.116C139.641 20.248 139.011 20.314 138.315 20.314C136.563 20.314 135.009 19.936 133.653 19.18V16.606C134.997 17.494 136.485 17.938 138.117 17.938C139.689 17.938 140.475 17.536 140.475 16.732C140.475 16.372 140.301 16.06 139.953 15.796C139.617 15.52 139.191 15.304 138.675 15.148C138.171 14.98 137.619 14.782 137.019 14.554C136.431 14.314 135.879 14.062 135.363 13.798C134.859 13.522 134.433 13.126 134.085 12.61C133.749 12.094 133.581 11.488 133.581 10.792Z" fill="#414141"/>
<path d="M143.781 7.46196H154.203V9.89196H150.333V20.062H147.651V9.89196H143.781V7.46196Z" fill="#414141"/>
<path d="M155.795 7.46196H164.669V9.83796H158.495V12.52H164.129V14.878H158.495V17.686H164.777V20.062H155.795V7.46196Z" fill="#414141"/>
<path d="M178.046 7.46196H180.548V20.062H177.848V12.304L174.518 17.362H172.952L169.622 12.286V20.062H166.922V7.46196H169.424L173.744 14.014L178.046 7.46196Z" fill="#414141"/>
<path d="M182.694 10.792C182.694 9.62796 183.132 8.73996 184.008 8.12796C184.884 7.51596 185.982 7.20996 187.302 7.20996C188.886 7.20996 190.248 7.53396 191.388 8.18196V10.702C190.32 9.93396 189.024 9.56196 187.5 9.58596C186.132 9.60996 185.448 9.99996 185.448 10.756C185.448 11.092 185.616 11.386 185.952 11.638C186.3 11.89 186.726 12.094 187.23 12.25C187.746 12.394 188.298 12.586 188.886 12.826C189.486 13.054 190.038 13.306 190.542 13.582C191.058 13.846 191.484 14.242 191.82 14.77C192.168 15.298 192.342 15.91 192.342 16.606C192.342 17.29 192.21 17.878 191.946 18.37C191.694 18.862 191.334 19.246 190.866 19.522C190.398 19.798 189.882 19.996 189.318 20.116C188.754 20.248 188.124 20.314 187.428 20.314C185.676 20.314 184.122 19.936 182.766 19.18V16.606C184.11 17.494 185.598 17.938 187.23 17.938C188.802 17.938 189.588 17.536 189.588 16.732C189.588 16.372 189.414 16.06 189.066 15.796C188.73 15.52 188.304 15.304 187.788 15.148C187.284 14.98 186.732 14.782 186.132 14.554C185.544 14.314 184.992 14.062 184.476 13.798C183.972 13.522 183.546 13.126 183.198 12.61C182.862 12.094 182.694 11.488 182.694 10.792Z" fill="#414141"/>
<rect x="1.32558" y="8.4684" width="15.0233" height="15.206" rx="2.2093" stroke="url(#paint0_linear_1_631)" stroke-width="2.65116"/>
<rect x="5.30225" y="6.25" width="4.4186" height="4.46429" fill="white"/>
<rect x="7.51113" y="1.32558" width="15.0233" height="15.206" rx="2.2093" stroke="#0446E6" stroke-width="2.65116"/>
<rect x="14.1396" y="15.1785" width="0.883721" height="2.67857" fill="white"/>
<rect x="17.6748" y="15.1785" width="0.883721" height="2.67857" fill="white"/>
<defs>
<linearGradient id="paint0_linear_1_631" x1="15.907" y1="8.03568" x2="-0.172542" y2="24.8348" gradientUnits="userSpaceOnUse">
<stop stop-color="#0446E6"/>
<stop offset="1" stop-color="#0446E6" stop-opacity="0.74"/>
</linearGradient>
</defs>
</svg>
